<svg width="307" height="275" viewBox="0 0 307 275" fill="none" xmlns="http://www.w3.org/2000/svg">
<ellipse cx="153.5" cy="200" rx="153.5" ry="75" fill="#EFDBDB"/>
<ellipse cx="168" cy="212" rx="96" ry="47" fill="#CEBBBB"/>
<path opacity="0.4" d="M186.972 248.923L112.374 205.971C111.946 205.723 111.593 205.365 111.352 204.934C111.11 204.503 110.989 204.016 111.001 203.522C111.012 203.028 111.157 202.547 111.418 202.128C111.68 201.709 112.049 201.368 112.488 201.141L121.874 196.304C122.283 196.094 122.738 195.99 123.198 196.001C123.658 196.011 124.108 196.136 124.508 196.364L201.619 240.759C202.048 241.005 202.403 241.362 202.646 241.793C202.889 242.224 203.011 242.713 202.999 243.208C202.988 243.702 202.842 244.185 202.579 244.604C202.316 245.023 201.945 245.363 201.505 245.589L194.693 249.098C193.495 249.719 192.159 250.029 190.81 249.998C189.461 249.967 188.141 249.598 186.972 248.923Z" fill="#D6D8E5"/>
<path d="M191.377 240.833L128.623 204.183C123.303 201.082 119 192.747 119 185.583V8.53165C119.02 1.34708 123.309 -1.93576 128.623 1.17217L191.377 37.8148C196.697 40.9227 201 49.2509 201 56.4153V233.473C201 240.644 196.691 243.934 191.377 240.833Z" fill="#B1B4C4"/>
<path d="M193 244L198 241.413L193.201 233L193 244Z" fill="#B1B4C4"/>
<path d="M118 3.13399L122 1L121.192 7L118 3.13399Z" fill="#B1B4C4"/>
<path d="M187.253 242.83L123.741 206.18C118.355 203.079 114 194.744 114 187.58V10.5354C114.027 3.34411 118.362 0.0679986 123.741 3.1692L187.253 39.8186C192.638 42.9265 197 51.2547 197 58.4191V235.477C197 242.641 192.638 245.938 187.253 242.83Z" fill="#616E84"/>
<path d="M197 58.4167V235.467C197 242.644 192.644 245.934 187.259 242.833L162.35 228.464L154.601 223.99L123.735 206.184C118.349 203.076 114 194.748 114 187.583V10.5334C114.027 3.35559 118.356 0.0660492 123.735 3.16723L187.259 39.8163C192.644 42.9243 197 51.2456 197 58.4167Z" fill="#20232D"/>
<path d="M192 57.305V229.153C192 233.484 188.941 235.24 185.174 233.068L181.798 231.124L170.225 224.494L165.249 221.638L163.494 220.626L162.906 220.284L158.619 217.837L146.162 210.704L141.03 207.761L138.951 206.568L126.528 199.448L124.833 198.476C121.052 196.311 118 191.048 118 186.711V14.8491C118 10.5183 121.052 8.7619 124.833 10.9273L149.653 25.2133V25.2804C149.752 27.1146 150.286 28.8996 151.21 30.4907C152.134 32.0819 153.424 33.4342 154.973 34.4379C157.917 36.1139 160.3 34.753 160.3 31.3876C160.3 31.3876 160.3 31.334 160.3 31.3139L185.181 45.5731C188.941 47.7117 192 52.9743 192 57.305Z" fill="white"/>
<path d="M157.41 32.4748C158.199 32.0215 158.201 30.5455 157.415 29.1782C156.63 27.8108 155.353 27.0698 154.564 27.5231C153.776 27.9764 153.773 29.4523 154.559 30.8197C155.345 32.1871 156.621 32.9281 157.41 32.4748Z" fill="#2B303F"/>
<path opacity="0.1" d="M154.996 30.8935C154.706 30.7463 154.464 30.5481 154.291 30.3149C154.118 30.0818 154.019 29.8203 154 29.5517C154 29.057 154.446 28.8591 154.996 29.1065C155.289 29.2523 155.532 29.45 155.707 29.6833C155.881 29.9167 155.982 30.1789 156 30.4483C156 30.943 155.554 31.1409 154.996 30.8935Z" fill="white"/>
<path d="M199 81.8857C198.446 82.1802 198 81.8857 198 81.2312V73.8547C198.005 73.5135 198.098 73.178 198.271 72.8756C198.445 72.5731 198.695 72.3121 199 72.1137C199.554 71.8192 200 72.1137 200 72.801V80.1447C199.995 80.4859 199.902 80.8214 199.729 81.1238C199.555 81.4263 199.305 81.6873 199 81.8857Z" fill="#FFB3B6"/>
<path d="M199 94.878C198.446 95.1948 198 94.878 198 94.122V86.037C198.006 85.6619 198.1 85.2935 198.274 84.9611C198.447 84.6286 198.696 84.3413 199 84.1219C199.554 83.8051 200 84.1219 200 84.885V92.9629C199.995 93.3382 199.902 93.707 199.728 94.0396C199.554 94.3722 199.305 94.6594 199 94.878Z" fill="#FFB3B6"/>
<path d="M178.334 116.556L130.666 88.6981C128.652 87.5159 127 84.3429 127 81.6047V27.2487C127 24.5309 128.638 23.2604 130.666 24.4426L178.334 52.3C180.348 53.4823 182 56.6553 182 59.3867V113.743C182 116.481 180.362 117.738 178.334 116.556Z" fill="#F0F3F7"/>
<path d="M170.267 176.67L134.733 156C133.231 155.123 132 152.769 132 150.742V110.411C132 108.394 133.221 107.451 134.733 108.328L170.267 128.998C171.769 129.875 173 132.23 173 134.262V174.593C173 176.615 171.779 177.547 170.267 176.67Z" fill="#6AC259"/>
<path d="M182 203.538V232L165.552 222.34L163.805 221.309L163.221 220.96L158.956 218.469L146.565 211.204L141.427 208.194L139.358 206.978L127 199.728V171.259C127 168.528 128.646 167.258 130.667 168.446L178.353 196.437C180.355 197.605 182 200.793 182 203.538Z" fill="#F0F3F7"/>
<path d="M149.966 153.257L140.273 136.419L143.507 134.556L149.966 145.773L164.51 137.354L167.744 142.967L149.966 153.257Z" fill="white"/>
</svg>
